<svg width="943" height="90" viewBox="0 0 943 90" fill="none" xmlns="http://www.w3.org/2000/svg">
<path d="M0.448001 6.44799H75.904V13.264H7.552V89.68H0.448001V6.44799ZM72.928 6.44799H80.032V81.04C80.032 85.36 78.88 87.472 76.096 88.624C73.216 89.776 68.608 89.872 60.64 89.872C60.256 88.048 59.2 84.976 58.144 83.152C63.808 83.44 69.088 83.344 70.72 83.248C72.256 83.152 72.928 82.672 72.928 80.944V6.44799ZM12.064 32.848H68.992V38.992H12.064V32.848ZM20.512 65.968H59.008V72.016H20.512V65.968ZM36.256 37.936H42.88V69.04H36.256V37.936ZM17.44 46.192H23.584V78.64H17.44V46.192ZM55.84 46.192H62.176V77.2H55.84V46.192ZM19.072 17.2L24.832 15.184C28.288 19.6 31.264 25.84 32.32 30.064L26.176 32.272C25.216 28.048 22.336 21.808 19.072 17.2ZM54.208 14.704L61.408 16.624C58.528 22.096 55.264 28.336 52.672 32.368L47.104 30.64C49.504 26.32 52.672 19.408 54.208 14.704ZM101.056 75.76H171.232V83.056H101.056V75.76ZM101.248 41.488H171.232V48.688H101.248V41.488ZM97.216 7.984H174.976V88.912H167.584V14.992H104.32V88.912H97.216V7.984ZM131.776 11.344H139.072V79.408H131.776V11.344ZM238.048 16.528C236.8 26.512 234.88 37.744 231.904 48.016C226.048 67.696 218.368 77.872 209.536 77.872C200.896 77.872 192.352 68.08 192.352 52.144C192.352 31.312 210.88 13.168 234.4 13.168C256.864 13.168 271.168 29.008 271.168 48.496C271.168 68.56 257.92 82 235.072 84.976L230.656 77.872C233.728 77.584 236.608 77.2 238.912 76.72C251.2 73.936 263.296 64.72 263.296 48.112C263.296 32.752 252.64 20.08 234.208 20.08C213.088 20.08 199.936 37.456 199.936 51.568C199.936 63.664 205.408 69.04 209.728 69.04C214.24 69.04 219.424 62.512 224.32 46.288C227.104 37.168 229.12 26.32 230.08 16.336L238.048 16.528ZM352.384 11.152C352.384 14.512 355.072 17.2 358.528 17.2C361.888 17.2 364.672 14.512 364.672 11.152C364.672 7.696 361.888 4.912 358.528 4.912C355.072 4.912 352.384 7.696 352.384 11.152ZM348.064 11.152C348.064 5.296 352.672 0.591995 358.528 0.591995C364.288 0.591995 369.088 5.296 369.088 11.152C369.088 16.912 364.288 21.616 358.528 21.616C352.672 21.616 348.064 16.912 348.064 11.152ZM331.936 8.08C331.744 9.424 331.36 12.88 331.36 14.896C331.36 19.984 331.36 28.048 331.36 32.752C331.36 40.528 331.36 71.632 331.36 78.544C331.36 83.536 328.96 86.128 323.104 86.128C319.072 86.128 313.408 85.936 309.472 85.456L308.8 77.872C313.024 78.64 317.344 78.928 319.936 78.928C322.528 78.928 323.584 77.872 323.584 75.28C323.68 70.096 323.68 37.264 323.68 32.752C323.68 29.488 323.68 19.984 323.68 14.896C323.68 12.784 323.296 9.51999 323.008 8.08H331.936ZM288.832 24.208C291.52 24.592 293.92 24.784 296.896 24.784C302.56 24.784 351.04 24.784 356.8 24.784C359.008 24.784 362.176 24.592 364.576 24.304V32.272C362.08 32.08 359.2 31.984 356.896 31.984C351.136 31.984 302.848 31.984 296.992 31.984C294.016 31.984 291.328 32.08 288.832 32.368V24.208ZM310.912 46.864C306.784 55.024 297.856 67.312 292.384 73.168L285.76 68.656C292.192 62.8 300.352 51.376 304.096 43.6L310.912 46.864ZM350.944 43.6C356.128 49.744 363.712 61.744 367.552 68.752L360.544 72.688C356.704 65.104 349.504 53.2 344.416 47.152L350.944 43.6ZM385.696 40.432C388.672 40.72 393.664 41.008 399.136 41.008C406.144 41.008 444.64 41.008 451.744 41.008C456.544 41.008 459.904 40.624 462.112 40.432V49.84C460.096 49.744 456.064 49.456 451.84 49.456C444.544 49.456 406.24 49.456 399.136 49.456C393.856 49.456 388.768 49.648 385.696 49.84V40.432ZM504.256 73.552C504.256 68.176 504.256 25.744 504.256 17.776C504.256 14.992 504.064 10.768 503.584 7.696H512.992C512.608 10.672 512.32 14.8 512.32 17.776C512.32 32.656 512.416 69.04 512.416 73.552C512.416 76.624 512.608 81.808 512.992 84.976H503.68C504.16 81.904 504.256 77.104 504.256 73.552ZM510.592 32.944C523.264 36.592 542.656 43.984 553.312 49.168L549.952 57.328C539.008 51.472 521.056 44.656 510.592 41.392V32.944ZM650.656 18.256C649.984 19.6 649.6 21.136 649.216 23.056C647.104 33.136 642.496 48.592 634.816 58.48C626.08 69.712 614.656 78.64 597.088 84.112L590.56 76.912C609.184 72.304 619.936 64.144 628 53.872C634.816 45.136 639.232 31.792 640.576 22.576C635.008 22.576 596.992 22.576 591.424 22.576C587.584 22.576 584.32 22.768 581.92 22.864V14.32C584.512 14.704 588.352 14.992 591.52 14.992C596.992 14.992 635.296 14.992 639.616 14.992C641.056 14.992 642.976 14.896 644.8 14.512L650.656 18.256ZM726.496 23.344C726.112 25.36 726.112 27.664 726.112 29.872C726.304 38.32 726.784 67.504 726.976 81.424C726.976 85.552 723.904 87.952 719.68 87.952C715.936 87.952 709.6 87.664 705.856 87.472L705.376 80.368C709.312 80.944 714.304 81.328 717.088 81.328C718.912 81.328 719.776 80.272 719.776 78.448C719.776 67.12 719.296 38.32 718.912 29.872C718.912 27.952 718.72 25.456 718.336 23.344H726.496ZM683.2 37.168C685.504 37.552 688.096 37.648 690.4 37.648C694.432 37.648 736.096 37.648 740.032 37.648C742.048 37.648 745.12 37.456 746.464 37.168V44.752C744.832 44.656 742.144 44.56 740.32 44.56C736.864 44.56 693.952 44.56 690.496 44.56C688 44.56 685.504 44.656 683.2 44.848V37.168ZM680.704 73.936C696.16 66.544 711.904 52.432 717.472 42.352L721.408 42.448L721.504 48.208C716.416 57.616 700.672 72.112 685.984 79.792L680.704 73.936ZM834.4 9.232C834.208 11.536 834.112 14.32 834.112 17.584C834.112 21.328 834.112 29.488 834.112 33.04C834.112 56.176 831.04 63.76 824.032 71.92C817.888 79.408 808.288 83.632 801.28 86.032L794.944 79.408C803.776 77.104 811.936 73.36 817.888 66.544C824.704 58.672 825.952 50.8 825.952 32.752C825.952 29.008 825.952 20.944 825.952 17.584C825.952 14.32 825.664 11.536 825.376 9.232H834.4ZM789.856 9.99999C789.664 11.824 789.568 14.608 789.568 16.816C789.568 19.696 789.568 44.848 789.568 48.88C789.568 51.376 789.664 54.544 789.856 56.272H781.12C781.312 54.736 781.504 51.664 781.504 48.88C781.504 44.752 781.504 19.696 781.504 16.816C781.504 15.184 781.408 11.824 781.12 9.99999H789.856ZM919.264 6.92799C918.88 9.51999 918.688 12.304 918.784 14.896C918.88 25.552 919.552 59.056 919.648 77.008C919.744 82.096 916.672 84.784 910.912 84.784C906.016 84.784 900.352 84.496 895.552 84.208L894.88 76.24C899.488 77.008 904.864 77.392 908.512 77.392C911.2 77.392 912.064 76.144 912.064 73.552C912.064 59.824 911.68 25.552 911.2 14.896C911.008 11.248 910.816 8.944 910.432 6.92799H919.264ZM867.712 23.728C870.496 24.016 873.664 24.208 876.544 24.208C881.632 24.208 929.152 24.208 934.048 24.208C936.544 24.208 940.288 23.92 942.208 23.632V31.792C939.904 31.696 936.64 31.504 934.24 31.504C930.016 31.504 881.056 31.504 876.736 31.504C873.472 31.504 870.784 31.696 867.712 31.888V23.728ZM864.256 68.56C884.512 58.576 902.272 41.776 909.376 30.064H913.216L913.312 36.496C906.016 47.92 888.16 65.008 869.728 74.8L864.256 68.56Z" fill="white"/>
</svg>
